<svg width="160" height="160" viewBox="0 0 160 160" fill="none" xmlns="http://www.w3.org/2000/svg">
<circle cx="80" cy="80" r="80" fill="#F8F8F8"/>
<path d="M32.595 59.885V90.85H47.445L46.51 98H23.575V59.885H32.595ZM59.1982 68.795V98H50.5082V68.795H59.1982ZM54.7982 53.395C56.3016 53.395 57.5299 53.8717 58.4832 54.825C59.4732 55.7417 59.9682 56.915 59.9682 58.345C59.9682 59.775 59.4732 60.9667 58.4832 61.92C57.5299 62.8367 56.3016 63.295 54.7982 63.295C53.2949 63.295 52.0666 62.8367 51.1132 61.92C50.1599 60.9667 49.6832 59.775 49.6832 58.345C49.6832 56.915 50.1599 55.7417 51.1132 54.825C52.0666 53.8717 53.2949 53.395 54.7982 53.395ZM73.6207 56.255V98H64.9307V57.19L73.6207 56.255ZM91.6607 68.795L82.8057 81.61L92.3757 98H82.5857L73.8957 82.05L82.8057 68.795H91.6607Z" fill="#FF7F50"/>
<path d="M114.417 98L112.437 89.805H101.327L99.4024 98H90.0524L101.547 59.885H112.492L123.987 98H114.417ZM102.867 83.26H110.897L106.882 66.43L102.867 83.26ZM134.704 59.885V98H125.684V59.885H134.704Z" fill="#3498DB"/>
</svg>
